<svg width="143" height="105" viewBox="0 0 143 105" xmlns="http://www.w3.org/2000/svg">
   <title>REDOM</title>
   <g fill="none" fill-rule="evenodd">
      <path d="M125 75l12.5 25h-25L125 75zm0-50l12.5 25h-25L125 25zm-25 50l12.5 25h-25L100 75zm12.5-25L125 75h-25l12.5-25zm-100 0L25 75H0l12.5-25zm25-50L50 25H25L37.5 0zm-25 0L25 25H0L12.5 0zM25 25l12.5 25h-25L25 25zm25 50l12.5 25h-25L50 75zm12.5-25L75 75H50l12.5-25zM75 25l12.5 25h-25L75 25zm12.5 25L100 75H75l12.5-25z" fill="#E8DC64"/>
      <path d="M25 75l12.5-25h-25L25 75zm25-50L62.5 0h-25L50 25zm-25 0L37.5 0h-25L25 25zm12.5 25L50 25H25l12.5 25zm-25 0L25 25H0l12.5 25zm50 50L75 75H50l12.5 25zM100 75l12.5-25h-25L100 75zm12.5 25L125 75h-25l12.5 25zM125 75l12.5-25h-25L125 75zm0-50l12.5-25h-25L125 25zM12.5 100L25 75H0l12.5 25zm75-50L100 25H75l12.5 25z" fill="#FDF06F"/>
      <path d="M25 75l12.5 25h-25L25 75zm50 0l12.5 25h-25L75 75zM37.5 50L50 75H25l12.5-25zM50 25l12.5 25h-25L50 25zM87.5 0L100 25H75L87.5 0zm25 0L125 25h-25l12.5-25zM100 25l12.5 25h-25L100 25zM62.5 0L75 25H50L62.5 0zm25 50L100 75H75l12.5-25z" fill="#BA152B"/>
      <path d="M100 25l12.5-25h-25L100 25zm-62.5 75L50 75H25l12.5 25zM50 75l12.5-25h-25L50 75zm25-50L87.5 0h-25L75 25zm12.5 75L100 75H75l12.5 25zm25-50L125 25h-25l12.5 25zM75 75l12.5-25h-25L75 75zM62.5 50L75 25H50l12.5 25z" fill="#D31B33"/>
   </g>
</svg>